<svg fill="none" height="20" viewBox="0 0 20 20" width="20" xmlns="http://www.w3.org/2000/svg"><g fill="#fff"><path d="m17.6875 4.125-3.2813-3.25c-.2187-.21875-.5312-.34375-.8437-.34375h-5.6875c-.90625 0-1.65625.75-1.65625 1.65625v11.4062c0 .9063.75 1.6563 1.65625 1.6563h8.5c.9062 0 1.6562-.75 1.6562-1.6563v-8.62495c0-.3125-.125-.625-.3437-.84375zm-3.2188-1.1875 1.1875 1.1875h-1.1875zm1.9063 10.9062h-8.5c-.125 0-.25-.125-.25-.25v-11.4062c0-.125.125-.25.25-.25h5.1875v2.875c0 .375.3125.71875.7187.71875h2.8438v8.09375c0 .125-.125.2187-.25.2187z"/><path d="m13.7812 7.03125h-4.12495c-.375 0-.71875.3125-.71875.71875s.3125.71875.71875.71875h4.12495c.375 0 .7188-.3125.7188-.71875s-.3438-.71875-.7188-.71875z"/><path d="m13.7812 9.65625h-4.12495c-.375 0-.71875.3125-.71875.71875 0 .375.3125.7187.71875.7187h4.12495c.375 0 .7188-.3124.7188-.7187-.0313-.40625-.3438-.71875-.7188-.71875z"/><path d="m13.0625 16.25c-.375 0-.7187.3125-.7187.7187v.8438c0 .125-.125.25-.25.25h-8.4688c-.125 0-.25-.125-.25-.25v-11.4375c0-.125.125-.25.25-.25h1.0625c.375 0 .71875-.3125.71875-.71875s-.3125-.71875-.71875-.71875h-1.0625c-.90625 0-1.65625.75-1.65625 1.65625v11.46875c0 .9063.75 1.6562 1.65625 1.6562h8.5c.9063 0 1.6562-.7499 1.6562-1.6562v-.8438c0-.4062-.3125-.7187-.7187-.7187z"/></g></svg>