<?xml version="1.0" encoding="UTF-8"?>
<svg width="818px" height="167px" viewBox="0 0 818 167" version="1.1" xmlns="http://www.w3.org/2000/svg" xmlns:xlink="http://www.w3.org/1999/xlink">
    <!-- Generator: Sketch 51.3 (57544) - http://www.bohemiancoding.com/sketch -->
    <title>logo-slice</title>
    <desc>Created with Sketch.</desc>
    <defs></defs>
    <g id="Page-1" stroke="none" stroke-width="1" fill="none" fill-rule="evenodd">
        <g id="trello-logo-blue" fill="#FFFFFF" fill-opacity="0.70349298">
            <path d="M145.7,0.7 L20.1,0.7 C9.3,0.7 0.5,9.5 0.5,20.3 L0.5,146 C0.5,156.8 9.3,165.6 20.1,165.6 L145.8,165.6 C156.6,165.6 165.4,156.8 165.4,146 L165.4,20.3 C165.3,9.4 156.6,0.7 145.7,0.7 Z M71.5,119.4 C71.5,123 68.6,125.9 65,125.9 L37.4,125.9 C33.8,125.9 30.9,123 30.9,119.4 L30.9,37.6 C30.9,34 33.8,31.1 37.4,31.1 L65,31.1 C68.6,31.1 71.5,34 71.5,37.6 L71.5,119.4 Z M134.9,81.9 C134.9,85.5 132,88.4 128.4,88.4 L100.8,88.4 C97.2,88.4 94.3,85.5 94.3,81.9 L94.3,37.6 C94.3,34 97.2,31.1 100.8,31.1 L128.4,31.1 C132,31.1 134.9,34 134.9,37.6 L134.9,81.9 Z" id="Shape"></path>
        </g>
        <text id="Waspello" font-family="ArialRoundedMTBold, Arial Rounded MT Bold" font-size="144" font-weight="normal" fill="#FFFFFF" fill-opacity="0.7">
            <tspan x="188.152344" y="136">Waspello</tspan>
        </text>
    </g>
</svg>