<?xml version="1.0" encoding="UTF-8"?>
<!DOCTYPE svg PUBLIC "-//W3C//DTD SVG 1.1//EN" "http://www.w3.org/Graphics/SVG/1.1/DTD/svg11.dtd">
<svg xmlns="http://www.w3.org/2000/svg" version="1.1" width="604px" height="604px" style="shape-rendering:geometricPrecision; text-rendering:geometricPrecision; image-rendering:optimizeQuality; fill-rule:evenodd; clip-rule:evenodd" xmlns:xlink="http://www.w3.org/1999/xlink">
<g><path style="opacity:0.997" fill="#fecb00" d="M 277.5,-0.5 C 293.5,-0.5 309.5,-0.5 325.5,-0.5C 439.314,12.6367 522.48,69.97 575,171.5C 590.766,205.275 600.266,240.608 603.5,277.5C 603.5,293.5 603.5,309.5 603.5,325.5C 590.363,439.314 533.03,522.48 431.5,575C 397.725,590.766 362.392,600.266 325.5,603.5C 309.5,603.5 293.5,603.5 277.5,603.5C 163.686,590.363 80.5197,533.03 28,431.5C 12.2343,397.725 2.7343,362.392 -0.5,325.5C -0.5,309.5 -0.5,293.5 -0.5,277.5C 12.6367,163.686 69.97,80.5197 171.5,28C 205.275,12.2343 240.608,2.7343 277.5,-0.5 Z"/></g>
<g><path style="opacity:1" fill="#020100" d="M 328.5,163.5 C 344.83,162.768 360.83,164.601 376.5,169C 384.27,171.771 389.77,176.937 393,184.5C 394.647,189.754 395.98,195.087 397,200.5C 397.333,219.833 397.667,239.167 398,258.5C 398.301,266.32 400.301,273.653 404,280.5C 408.276,285.772 413.776,288.939 420.5,290C 428.159,290.5 435.826,290.666 443.5,290.5C 443.5,297.5 443.5,304.5 443.5,311.5C 434.032,310.989 424.699,311.822 415.5,314C 404.083,319.452 398.25,328.619 398,341.5C 397.667,361.167 397.333,380.833 397,400.5C 396.266,409.964 393.266,418.631 388,426.5C 380.404,433.037 371.57,436.871 361.5,438C 350.518,438.943 339.518,439.443 328.5,439.5C 328.5,432.5 328.5,425.5 328.5,418.5C 337.546,418.764 346.546,418.264 355.5,417C 365.897,413.736 371.064,406.57 371,395.5C 371.333,375.5 371.667,355.5 372,335.5C 372.353,325.091 376.187,316.258 383.5,309C 388.373,306.064 393.373,303.397 398.5,301C 382.3,296.799 373.467,286.299 372,269.5C 371.667,248.833 371.333,228.167 371,207.5C 371.058,196.415 365.892,189.248 355.5,186C 346.541,184.783 337.541,184.283 328.5,184.5C 328.5,177.5 328.5,170.5 328.5,163.5 Z"/></g>
<g><path style="opacity:1" fill="#000000" d="M 159.5,257.5 C 200.833,257.5 242.167,257.5 283.5,257.5C 283.5,265.5 283.5,273.5 283.5,281.5C 242.167,281.5 200.833,281.5 159.5,281.5C 159.5,273.5 159.5,265.5 159.5,257.5 Z"/></g>
<g><path style="opacity:1" fill="#000000" d="M 159.5,316.5 C 200.833,316.5 242.167,316.5 283.5,316.5C 283.5,324.833 283.5,333.167 283.5,341.5C 242.167,341.5 200.833,341.5 159.5,341.5C 159.5,333.167 159.5,324.833 159.5,316.5 Z"/></g>
</svg>
