<?xml version="1.0" encoding="UTF-8" standalone="no"?>
<!-- Created with Inkscape (http://www.inkscape.org/) -->

<svg
   version="1.1"
   id="svg1"
   width="1520.494"
   height="1520.4937"
   viewBox="0 0 1520.494 1520.4937"
   sodipodi:docname="wasp-logo-rounded.svg"
   inkscape:version="1.4.4 (dcaf3e7d9e, 2026-05-05)"
   xmlns:inkscape="http://www.inkscape.org/namespaces/inkscape"
   xmlns:sodipodi="http://sodipodi.sourceforge.net/DTD/sodipodi-0.dtd"
   xmlns="http://www.w3.org/2000/svg"
   xmlns:svg="http://www.w3.org/2000/svg">
  <defs
     id="defs1" />
  <sodipodi:namedview
     id="namedview1"
     pagecolor="#ffffff"
     bordercolor="#000000"
     borderopacity="0.25"
     inkscape:showpageshadow="2"
     inkscape:pageopacity="0.0"
     inkscape:pagecheckerboard="0"
     inkscape:deskcolor="#d1d1d1"
     showgrid="false"
     inkscape:zoom="0.5"
     inkscape:cx="673"
     inkscape:cy="850"
     inkscape:window-width="2560"
     inkscape:window-height="1403"
     inkscape:window-x="0"
     inkscape:window-y="0"
     inkscape:window-maximized="1"
     inkscape:current-layer="g1" />
  <g
     inkscape:groupmode="layer"
     inkscape:label="Image"
     id="g1"
     style="display:inline">
    <rect
       style="display:inline;fill:#f5c842;fill-opacity:1;stroke:none;stroke-width:1.48932"
       id="rect1"
       width="1520.494"
       height="1520.4937"
       x="0"
       y="0"
       rx="300"
       ry="300" />
    <path
       id="path8"
       style="baseline-shift:baseline;display:inline;overflow:visible;opacity:1;fill:#111111;fill-opacity:1;stroke:none;stroke-width:0;stroke-dasharray:none;enable-background:accumulate;stop-color:#000000;stop-opacity:1"
       d="m 1006.1387,294.36914 -154.83401,0.002 0.49219,143.83985 h 84.68554 c 0.0236,0.002 18.50671,1.58052 30.04492,7.98437 13.35259,7.41085 14.4259,10.8628 21.40821,20.60742 3.0255,4.22244 4.89736,10.78692 5.96679,16.27344 1.06796,5.47892 1.35662,9.85504 1.35743,9.86719 v 145.67383 l 0.002,0.0254 c 0,0 0.57505,7.17541 1.77148,16.0664 1.19643,8.89098 3.00315,19.48429 5.53135,26.44922 4.308,11.86846 13.4338,26.90677 21.3378,36.70118 9.2585,11.47252 21.9248,20.31102 34.4922,27.82421 11.14,6.65978 32.1823,11.64898 33.0899,11.86329 v 2.20507 c -0.9076,0.2143 -21.95,5.2035 -33.0899,11.86328 -12.5674,7.51319 -25.2337,16.3517 -34.4923,27.82422 -7.904,9.7944 -17.0298,24.83271 -21.3378,36.70117 -2.5282,6.96494 -4.33482,17.55824 -5.53125,26.44922 -1.19643,8.89099 -1.77148,16.06641 -1.77148,16.06641 l -0.002,0.0273 v 145.67379 c -8.1e-4,0.012 -0.28947,4.3883 -1.35743,9.8672 -1.06943,5.4865 -2.94129,12.051 -5.96679,16.2734 -6.98231,9.7446 -8.05562,13.1966 -21.40821,20.6075 -11.53821,6.4039 -30.02132,7.9843 -30.04492,7.9843 h -84.68554 l -0.49219,143.8399 h 154.83401 0.01 c 0,0 7.4431,-0.1889 16.2578,-0.6348 8.8151,-0.4459 18.9758,-1.1401 24.5489,-2.1855 7.0829,-1.3287 19.8282,-3.191 33.0722,-9.1563 13.1471,-5.9214 16.0769,-7.4332 22.1368,-11.041 11.5972,-6.9044 23.8392,-19.3238 33.9707,-32.6113 10.1315,-13.2875 18.1379,-27.4195 21.1699,-37.8731 6.0399,-20.8237 6.2949,-47.5644 6.2949,-47.5644 V 884.6875 c 0,-0.0209 0.143,-2.60409 0.4981,-5.79297 0.3564,-3.20177 0.9429,-7.00623 1.75,-9.23633 0.9374,-2.59028 2.8516,-7.36784 5.2773,-12.01562 2.4257,-4.64778 5.4062,-9.16866 8.2559,-11.21875 5.566,-4.00429 12.6343,-9.67141 20.0136,-10.70899 5.8326,-0.82008 13.0025,-1.45307 13.0215,-1.45507 h 53.1563 v -73.125 -1.18946 -0.0156 -0.44141 -0.45508 -0.76758 -0.45507 -0.44141 -0.0156 -1.18946 -73.125 h -53.1563 c -0.019,-0.002 -7.1889,-0.635 -13.0215,-1.45508 -7.3793,-1.03758 -14.4476,-6.70469 -20.0136,-10.70898 -2.8497,-2.05009 -5.8302,-6.57097 -8.2559,-11.21875 -2.4257,-4.64778 -4.3399,-9.42535 -5.2773,-12.01563 -0.8071,-2.23009 -1.3936,-6.03455 -1.75,-9.23632 -0.3551,-3.18888 -0.4969,-5.77202 -0.4981,-5.79297 v -197.17188 -0.004 c 0,0 -0.255,-26.74062 -6.2949,-47.56446 -3.032,-10.45347 -11.0384,-24.58556 -21.1699,-37.87304 -10.1315,-13.28748 -22.3735,-25.70689 -33.9707,-32.61133 -6.0599,-3.60777 -8.9897,-5.11952 -22.1368,-11.04102 -13.244,-5.9652 -25.9893,-7.82753 -33.0722,-9.15625 -5.5731,-1.04547 -15.7338,-1.73964 -24.5489,-2.18554 -8.8147,-0.44591 -16.2578,-0.63477 -16.2578,-0.63477 z" />
    <path
       id="path2"
       style="baseline-shift:baseline;display:inline;overflow:visible;opacity:1;fill:#111111;fill-opacity:1;stroke:none;stroke-width:0;stroke-dasharray:none;enable-background:accumulate;stop-color:#000000;stop-opacity:1"
       d="M 252.42969,528.10938 V 686.08203 H 747.03125 V 528.10938 Z" />
    <path
       id="path6"
       style="baseline-shift:baseline;display:inline;overflow:visible;opacity:1;fill:#111111;fill-opacity:1;stroke:none;stroke-width:0;stroke-dasharray:none;enable-background:accumulate;stop-color:#000000;stop-opacity:1"
       d="M 252.42969,826.10938 V 984.08203 H 747.03125 V 826.10938 Z" />
  </g>
</svg>
