<?xml version="1.0" encoding="UTF-8" standalone="no"?>
<!-- Created with Inkscape (http://www.inkscape.org/) -->

<svg
   version="1.1"
   id="svg1"
   width="1523"
   height="1525"
   viewBox="0 0 1523 1525"
   sodipodi:docname="wasp-favicon.svg"
   inkscape:version="1.4.3 (0d15f75042, 2025-12-25)"
   xml:space="preserve"
   xmlns:inkscape="http://www.inkscape.org/namespaces/inkscape"
   xmlns:sodipodi="http://sodipodi.sourceforge.net/DTD/sodipodi-0.dtd"
   xmlns="http://www.w3.org/2000/svg"
   xmlns:svg="http://www.w3.org/2000/svg"><defs
     id="defs1"><inkscape:path-effect
       effect="fillet_chamfer"
       id="path-effect5"
       is_visible="true"
       lpeversion="1"
       nodesatellites_param="F,0,0,1,0,8.413337,0,1 @ F,0,0,1,0,7.3288572,0,1 @ F,0,0,1,0,7.325638,0,1 @ F,0,0,1,0,0,0,1 @ F,0,0,1,0,0,0,1 @ F,0,0,1,0,0,0,1 @ F,0,0,1,0,0,0,1 @ F,0,0,1,0,0,0,1 @ F,0,0,1,0,7.243617,0,1 @ F,0,0,1,0,0,0,1 @ F,0,0,1,0,0,0,1 @ F,0,0,1,0,0,0,1 @ F,0,0,1,0,0,0,1 @ F,0,0,1,0,0,0,1 @ F,0,0,1,0,0,0,1 @ F,0,0,1,0,0,0,1 @ F,0,0,1,0,0,0,1 @ F,0,0,1,0,0,0,1 @ F,0,0,1,0,0,0,1 @ F,0,0,1,0,0,0,1 @ F,0,0,1,0,8.2171487,0,1"
       radius="0"
       unit="px"
       method="auto"
       mode="F"
       chamfer_steps="1"
       flexible="false"
       use_knot_distance="true"
       apply_no_radius="true"
       apply_with_radius="true"
       only_selected="false"
       hide_knots="false" /><inkscape:path-effect
       effect="fillet_chamfer"
       id="path-effect3"
       is_visible="true"
       lpeversion="1"
       nodesatellites_param="F,0,0,1,0,8.413337,0,1 @ F,0,0,1,0,7.3288572,0,1 @ F,0,0,1,0,7.325638,0,1 @ F,0,0,1,0,0,0,1 @ F,0,0,1,0,0,0,1 @ F,0,0,1,0,0,0,1 @ F,0,0,1,0,0,0,1 @ F,0,0,1,0,0,0,1 @ F,0,0,1,0,7.243617,0,1 @ F,0,0,1,0,0,0,1 @ F,0,0,1,0,0,0,1 @ F,0,0,1,0,0,0,1 @ F,0,0,1,0,0,0,1 @ F,0,0,1,0,0,0,1 @ F,0,0,1,0,0,0,1 @ F,0,0,1,0,0,0,1 @ F,0,0,1,0,0,0,1 @ F,0,0,1,0,0,0,1 @ F,0,0,1,0,0,0,1 @ F,0,0,1,0,0,0,1 @ F,0,0,1,0,8.2171487,0,1"
       radius="0"
       unit="px"
       method="auto"
       mode="F"
       chamfer_steps="1"
       flexible="false"
       use_knot_distance="true"
       apply_no_radius="true"
       apply_with_radius="true"
       only_selected="false"
       hide_knots="false" /><inkscape:path-effect
       effect="fillet_chamfer"
       id="path-effect2"
       is_visible="true"
       lpeversion="1"
       nodesatellites_param="F,0,0,1,0,0,0,1 @ F,0,0,1,0,0,0,1 @ F,0,0,1,0,0,0,1 @ F,0,0,1,0,0,0,1 @ F,0,0,1,0,0,0,1 @ F,0,0,1,0,0,0,1 @ F,0,0,1,0,0,0,1 @ F,0,0,1,0,0,0,1 @ F,0,0,1,0,0,0,1 @ F,0,0,1,0,0,0,1 @ F,0,0,1,0,0,0,1 @ F,0,0,1,0,0,0,1 @ F,0,0,1,0,0,0,1 @ F,0,0,1,0,0,0,1 @ F,0,0,1,0,0,0,1 @ F,0,0,1,0,0,0,1 @ F,0,0,1,0,0,0,1 @ F,0,0,1,0,0,0,1 @ F,0,0,1,0,0,0,1 @ F,0,0,1,0,0,0,1 @ F,0,0,1,0,0,0,1 @ F,0,0,1,0,0,0,1 @ F,0,0,1,0,0,0,1 @ F,0,0,1,0,0,0,1 @ F,0,0,1,0,0,0,1 @ F,0,0,1,0,0,0,1"
       radius="0"
       unit="px"
       method="auto"
       mode="F"
       chamfer_steps="1"
       flexible="false"
       use_knot_distance="true"
       apply_no_radius="true"
       apply_with_radius="true"
       only_selected="false"
       hide_knots="false" /><inkscape:path-effect
       effect="fillet_chamfer"
       id="path-effect1"
       is_visible="true"
       lpeversion="1"
       nodesatellites_param="F,0,0,1,0,7.6283485,0,1 @ F,0,0,1,0,0,0,1 @ F,0,0,1,0,0,0,1 @ F,0,0,1,0,0,0,1 @ F,0,0,1,0,0,0,1 @ F,0,0,1,0,0,0,1 @ F,0,0,1,0,0,0,1 @ F,0,0,1,0,0,0,1 @ F,0,0,1,0,0,0,1 @ F,0,0,1,0,0,0,1 @ F,0,0,1,0,0,0,1 @ F,0,0,1,0,0,0,1 @ F,0,0,1,0,0,0,1 @ F,0,0,1,0,0,0,1 @ F,0,0,1,0,0,0,1 @ F,0,0,1,0,0,0,1 @ F,0,0,1,0,0,0,1 @ F,0,0,1,0,0,0,1 @ F,0,0,1,0,0,0,1 @ F,0,0,1,0,0,0,1 @ F,0,0,1,0,0,0,1 @ F,0,0,1,0,0,0,1 @ F,0,0,1,0,0,0,1 @ F,0,0,1,0,0,0,1 @ F,0,0,1,0,0,0,1 @ F,0,0,1,0,8.234204,0,1"
       radius="0"
       unit="px"
       method="auto"
       mode="F"
       chamfer_steps="1"
       flexible="false"
       use_knot_distance="true"
       apply_no_radius="true"
       apply_with_radius="true"
       only_selected="false"
       hide_knots="false" /></defs><sodipodi:namedview
     id="namedview1"
     pagecolor="#ffffff"
     bordercolor="#000000"
     borderopacity="0.25"
     inkscape:showpageshadow="2"
     inkscape:pageopacity="0.0"
     inkscape:pagecheckerboard="0"
     inkscape:deskcolor="#d1d1d1"
     showgrid="false"
     inkscape:zoom="0.5"
     inkscape:cx="765"
     inkscape:cy="692"
     inkscape:window-width="2560"
     inkscape:window-height="1403"
     inkscape:window-x="0"
     inkscape:window-y="0"
     inkscape:window-maximized="1"
     inkscape:current-layer="g1" /><g
     inkscape:groupmode="layer"
     inkscape:label="Image"
     id="g1"
     style="display:inline"><rect
       style="display:inline;fill:#f5c842;fill-opacity:1;stroke:#d4aa00;stroke-width:1.48932"
       id="rect1"
       width="1520.494"
       height="1520.4937"
       x="1.9302661"
       y="1.9302716"
       rx="300"
       ry="300" /><rect
       style="display:inline;fill:#1a1a1a;fill-opacity:1;stroke:#1a1a1a;stroke-width:1.37953"
       id="rect2"
       width="493.22198"
       height="156.59341"
       x="255.05034"
       y="530.72974"
       rx="10"
       ry="10" /><rect
       style="fill:#1a1a1a;fill-opacity:1;stroke:#1a1a1a;stroke-width:1.37953"
       id="rect3"
       width="493.22198"
       height="156.59341"
       x="255.05034"
       y="828.72974"
       rx="10"
       ry="10" /><path
       style="fill:#000000;fill-opacity:1;stroke:#000000;stroke-width:1.37953"
       d="m 862.34137,295.68976 h 200.82973 a 17.697282,17.697282 22.495587 0 1 12.512,5.18149 l 83.9754,83.94954 a 17.681803,17.681803 67.495587 0 1 5.1808,12.50485 v 235.93074 c 0,0 0.5806,10.52911 2.2894,15.25083 1.8947,5.23506 7.6861,19.17533 13.7799,23.55934 5.5374,3.98369 12.6634,9.75474 20.3208,10.83142 5.869,0.82521 13.0728,1.46225 13.0728,1.46225 h 45.2667 a 7.243617,7.243617 45 0 1 7.2436,7.24362 v 68.06038 0.2072 h -172.7079 v -2.21705 c 0,0 -22.2537,-5.25276 -33.4252,-11.93137 -12.538,-7.49558 -25.1353,-16.29672 -34.3092,-27.66449 -7.8499,-9.72725 -16.9626,-24.75378 -21.2275,-36.50332 -4.9743,-13.70397 -7.26226,-42.33696 -7.26226,-42.33696 V 470.67126 c -0.0852,-10.04409 -1.33678,-14.95602 -5.4636,-21.34598 -3.31893,-5.13903 -8.04845,-11.123 -19.21903,-11.17499 H 862.63155 a 8.2452505,8.2452505 44.902195 0 1 -8.2452,-8.2171 l -0.4296,-125.83014 a 8.3846623,8.3846623 134.90219 0 1 8.38462,-8.41329 z"
       id="path3"
       sodipodi:nodetypes="ccccsssccccccsssccsccc"
       inkscape:path-effect="#path-effect3"
       inkscape:original-d="M 853.92803,295.68976 H 1070.5 L 1164.8393,390 v 243.25638 c 0,0 0.5806,10.52911 2.2894,15.25083 1.8947,5.23506 7.6861,19.17533 13.7799,23.55934 5.5374,3.98369 12.6634,9.75474 20.3208,10.83142 5.869,0.82521 13.0728,1.46225 13.0728,1.46225 h 52.5103 v 75.304 0.2072 h -172.7079 v -2.21705 c 0,0 -22.2537,-5.25276 -33.4252,-11.93137 -12.538,-7.49558 -25.1353,-16.29672 -34.3092,-27.66449 -7.8499,-9.72725 -16.9626,-24.75378 -21.2275,-36.50332 -4.9743,-13.70397 -7.26226,-42.33696 -7.26226,-42.33696 V 470.67126 c -0.0852,-10.04409 -1.33678,-14.95602 -5.4636,-21.34598 -3.31893,-5.13903 -8.04845,-11.123 -19.21903,-11.17499 H 854.4144 Z" /><path
       style="fill:#000000;fill-opacity:1;stroke:#000000;stroke-width:1.37953"
       d="m 862.34137,295.68976 h 200.82973 a 17.697282,17.697282 22.495587 0 1 12.512,5.18149 l 83.9754,83.94954 a 17.681803,17.681803 67.495587 0 1 5.1808,12.50485 v 235.93074 c 0,0 0.5806,10.52911 2.2894,15.25083 1.8947,5.23506 7.6861,19.17533 13.7799,23.55934 5.5374,3.98369 12.6634,9.75474 20.3208,10.83142 5.869,0.82521 13.0728,1.46225 13.0728,1.46225 h 45.2667 a 7.243617,7.243617 45 0 1 7.2436,7.24362 v 68.06038 0.2072 h -172.7079 v -2.21705 c 0,0 -22.2537,-5.25276 -33.4252,-11.93137 -12.538,-7.49558 -25.1353,-16.29672 -34.3092,-27.66449 -7.8499,-9.72725 -16.9626,-24.75378 -21.2275,-36.50332 -4.9743,-13.70397 -7.26226,-42.33696 -7.26226,-42.33696 V 470.67126 c -0.0852,-10.04409 -1.33678,-14.95602 -5.4636,-21.34598 -3.31893,-5.13903 -8.04845,-11.123 -19.21903,-11.17499 H 862.63155 a 8.2452505,8.2452505 44.902195 0 1 -8.2452,-8.2171 l -0.4296,-125.83014 a 8.3846623,8.3846623 134.90219 0 1 8.38462,-8.41329 z"
       id="path4"
       sodipodi:nodetypes="ccccsssccccccsssccsccc"
       inkscape:path-effect="#path-effect5"
       inkscape:original-d="M 853.92803,295.68976 H 1070.5 L 1164.8393,390 v 243.25638 c 0,0 0.5806,10.52911 2.2894,15.25083 1.8947,5.23506 7.6861,19.17533 13.7799,23.55934 5.5374,3.98369 12.6634,9.75474 20.3208,10.83142 5.869,0.82521 13.0728,1.46225 13.0728,1.46225 h 52.5103 v 75.304 0.2072 h -172.7079 v -2.21705 c 0,0 -22.2537,-5.25276 -33.4252,-11.93137 -12.538,-7.49558 -25.1353,-16.29672 -34.3092,-27.66449 -7.8499,-9.72725 -16.9626,-24.75378 -21.2275,-36.50332 -4.9743,-13.70397 -7.26226,-42.33696 -7.26226,-42.33696 V 470.67126 c -0.0852,-10.04409 -1.33678,-14.95602 -5.4636,-21.34598 -3.31893,-5.13903 -8.04845,-11.123 -19.21903,-11.17499 H 854.4144 Z"
       transform="matrix(1,0,0,-1,0,1521.0682)" /></g></svg>
