<svg height="1533" preserveAspectRatio="xMidYMid" viewBox="0 0 512 314" width="2500" xmlns="http://www.w3.org/2000/svg" xmlns:xlink="http://www.w3.org/1999/xlink"><defs><linearGradient id="a"><stop offset="0" stop-color="#41873f"/><stop offset=".3288" stop-color="#418b3d"/><stop offset=".6352" stop-color="#419637"/><stop offset=".9319" stop-color="#3fa92d"/><stop offset="1" stop-color="#3fae2a"/></linearGradient><linearGradient id="b" x1="68.188%" x2="27.823%" xlink:href="#a" y1="17.487%" y2="89.755%"/><path id="c" d="m57.903 1.85a5.957 5.957 0 0 0 -5.894 0l-48.657 28.083c-1.85 1.04-2.89 3.005-2.89 5.085v56.286c0 2.08 1.156 4.045 2.89 5.085l48.657 28.085a5.957 5.957 0 0 0 5.894 0l48.658-28.085c1.849-1.04 2.89-3.005 2.89-5.085v-56.285c0-2.08-1.157-4.045-2.89-5.085z"/><linearGradient id="d" x1="43.277%" x2="159.245%" y1="55.169%" y2="-18.306%"><stop offset=".1376" stop-color="#41873f"/><stop offset=".4032" stop-color="#54a044"/><stop offset=".7136" stop-color="#66b848"/><stop offset=".9081" stop-color="#6cc04a"/></linearGradient><linearGradient id="e"><stop offset=".09192" stop-color="#6cc04a"/><stop offset=".2864" stop-color="#66b848"/><stop offset=".5968" stop-color="#54a044"/><stop offset=".8624" stop-color="#41873f"/></linearGradient><linearGradient id="f" x1="-4413.77%" x2="5327.93%" xlink:href="#e" y1="13.43%" y2="13.43%"/><linearGradient id="g" x1="-4.389%" x2="101.499%" xlink:href="#e" y1="49.997%" y2="49.997%"/><linearGradient id="h" x1="-9713.77%" x2="27.93%" xlink:href="#e" y1="36.21%" y2="36.21%"/><linearGradient id="i" x1="-103.861%" x2="100.797%" xlink:href="#e" y1="50.275%" y2="50.275%"/><linearGradient id="j" x1="130.613%" x2="4.393%" xlink:href="#a" y1="-211.069%" y2="201.605%"/><mask id="k" fill="#fff"><use fill="#fff" xlink:href="#c"/></mask></defs><g fill="none"><path d="m253.11 313.094c-1.733 0-3.351-.462-4.854-1.271l-15.371-9.13c-2.312-1.272-1.156-1.734-.462-1.965 3.12-1.04 3.698-1.272 6.934-3.12.347-.232.81-.116 1.156.115l11.789 7.05c.462.231 1.04.231 1.386 0l46.115-26.698c.462-.231.694-.694.694-1.271v-53.28c0-.579-.232-1.04-.694-1.272l-46.115-26.582c-.462-.232-1.04-.232-1.386 0l-46.115 26.582c-.462.231-.694.809-.694 1.271v53.28c0 .463.232 1.04.694 1.272l12.598 7.281c6.819 3.467 11.095-.578 11.095-4.623v-52.587c0-.693.578-1.387 1.387-1.387h5.894c.694 0 1.387.578 1.387 1.387v52.587c0 9.13-4.97 14.447-13.638 14.447-2.658 0-4.738 0-10.633-2.89l-12.135-6.934c-3.005-1.733-4.854-4.97-4.854-8.437v-53.28c0-3.467 1.849-6.704 4.854-8.437l46.114-26.698c2.89-1.618 6.82-1.618 9.709 0l46.114 26.698c3.005 1.733 4.855 4.97 4.855 8.437v53.28c0 3.467-1.85 6.704-4.855 8.437l-46.114 26.698c-1.503.694-3.236 1.04-4.854 1.04zm14.216-36.637c-20.225 0-24.386-9.246-24.386-17.105 0-.694.578-1.387 1.387-1.387h6.01c.693 0 1.271.462 1.271 1.156.925 6.125 3.583 9.13 15.834 9.13 9.708 0 13.87-2.196 13.87-7.397 0-3.005-1.157-5.2-16.297-6.703-12.598-1.272-20.457-4.045-20.457-14.1 0-9.362 7.86-14.91 21.035-14.91 14.793 0 22.075 5.086 23 16.18 0 .348-.116.694-.347 1.041-.232.231-.578.462-.925.462h-6.01c-.578 0-1.156-.462-1.271-1.04-1.387-6.356-4.97-8.437-14.447-8.437-10.633 0-11.905 3.699-11.905 6.472 0 3.352 1.503 4.392 15.834 6.241 14.216 1.85 20.92 4.508 20.92 14.447-.116 10.171-8.437 15.95-23.116 15.95z" fill="#539e43"/><path d="m110.028 104.712c0-2.08-1.156-4.046-3.005-5.086l-49.004-28.2c-.81-.463-1.734-.694-2.658-.81h-.463c-.924 0-1.849.347-2.658.81l-49.004 28.2c-1.85 1.04-3.005 3.005-3.005 5.086l.116 75.817c0 1.04.578 2.08 1.502 2.543.925.578 2.08.578 2.89 0l29.125-16.643c1.849-1.04 3.005-3.005 3.005-5.085v-35.482c0-2.08 1.155-4.045 3.005-5.085l12.366-7.166c.925-.578 1.965-.81 3.005-.81s2.08.232 2.89.81l12.366 7.166c1.85 1.04 3.005 3.004 3.005 5.085v35.482c0 2.08 1.156 4.045 3.005 5.085l29.125 16.643c.925.578 2.08.578 3.005 0 .925-.463 1.503-1.503 1.503-2.543zm235.543-104.365c-.924-.463-2.08-.463-2.89 0-.924.578-1.502 1.502-1.502 2.542v75.125c0 .693-.346 1.386-1.04 1.849-.693.346-1.387.346-2.08 0l-12.251-7.05a5.957 5.957 0 0 0 -5.895 0l-49.004 28.316c-1.849 1.04-3.005 3.005-3.005 5.085v56.516c0 2.08 1.156 4.046 3.005 5.086l49.004 28.316a5.957 5.957 0 0 0 5.895 0l49.004-28.316c1.849-1.04 3.005-3.005 3.005-5.086v-140.886c0-2.196-1.156-4.16-3.005-5.201l-29.24-16.296zm-4.507 143.776c0 .578-.231 1.04-.694 1.271l-16.758 9.708a1.714 1.714 0 0 1 -1.503 0l-16.758-9.708c-.463-.231-.694-.809-.694-1.271v-19.417c0-.578.231-1.04.694-1.271l16.758-9.709a1.714 1.714 0 0 1 1.503 0l16.758 9.709c.463.23.694.809.694 1.271zm167.584-19.879c1.85-1.04 2.89-3.005 2.89-5.086v-13.753c0-2.08-1.156-4.045-2.89-5.085l-48.657-28.2a5.957 5.957 0 0 0 -5.894 0l-49.004 28.315c-1.85 1.04-3.005 3.005-3.005 5.086v56.516c0 2.08 1.155 4.045 3.005 5.085l48.657 27.738c1.85 1.04 4.045 1.04 5.779 0l29.471-16.41c.925-.463 1.503-1.503 1.503-2.543s-.578-2.08-1.503-2.543l-49.235-28.316c-.924-.577-1.502-1.502-1.502-2.542v-17.683c0-1.04.578-2.08 1.502-2.543l15.372-8.784a2.821 2.821 0 0 1 3.005 0l15.371 8.784c.925.578 1.503 1.502 1.503 2.543v13.869c0 1.04.578 2.08 1.502 2.542.925.578 2.08.578 3.005 0z" fill="#333"/><path d="m456.293 121.586a1.05 1.05 0 0 1 1.155 0l9.362 5.432c.347.23.578.577.578 1.04v10.864c0 .462-.231.809-.578 1.04l-9.362 5.432a1.05 1.05 0 0 1 -1.155 0l-9.362-5.432c-.347-.231-.578-.578-.578-1.04v-10.864c0-.463.231-.81.578-1.04z" fill="#539e43"/><g transform="translate(134.068 70.501)"><use fill="url(#b)" xlink:href="#c"/><g mask="url(#k)"><path d="m51.893 1.85-48.772 28.083c-1.851 1.041-3.121 3.007-3.121 5.087v56.286c0 1.387.578 2.658 1.502 3.698l54.783-93.848c-1.387-.231-3.005-.116-4.392.693zm4.739 123.203c.462-.116.925-.347 1.387-.578l48.773-28.085c1.85-1.04 3.005-3.005 3.005-5.085v-56.286c0-1.502-.694-3.005-1.734-4.045l-51.43 94.079z"/><path d="m106.676 29.934-48.888-28.084a8.025 8.025 0 0 0 -1.503-.578l-54.783 93.848a6.082 6.082 0 0 0 1.619 1.387l48.888 28.085c1.387.809 3.005 1.04 4.507.577l51.432-94.078c-.347-.462-.81-.81-1.272-1.156z" fill="url(#d)"/></g><g mask="url(#k)"><path d="m109.797 91.305v-56.286c0-2.08-1.271-4.045-3.12-5.085l-48.891-28.084a5.106 5.106 0 0 0 -1.848-.693l53.511 91.42c.231-.347.347-.809.347-1.271zm-106.677-61.371c-1.848 1.04-3.12 3.006-3.12 5.086v56.286c0 2.08 1.387 4.045 3.12 5.085l48.889 28.085c1.156.693 2.427.925 3.814.693l-52.356-95.351-.346.116z"/><g fill-rule="evenodd"><path d="m50.391.809-.693.347h.924z" fill="url(#f)" transform="translate(0 -9.246)"/><path d="m106.792 105.636c1.387-.809 2.427-2.196 2.89-3.698l-53.629-91.536c-1.387-.231-2.89-.116-4.16.693l-48.542 27.97 52.355 95.465a8.057 8.057 0 0 0 2.196-.693l48.889-28.2z" fill="url(#g)" transform="translate(0 -9.246)"/><path d="m111.3 104.712-.347-.578v.809l.346-.231z" fill="url(#h)" transform="translate(0 -9.246)"/><path d="m106.792 105.636-48.773 28.085a6.973 6.973 0 0 1 -2.196.693l.925 1.734 54.089-31.32v-.694l-1.387-2.312c-.231 1.618-1.271 3.005-2.658 3.814z" fill="url(#i)" transform="translate(0 -9.246)"/><path d="m106.792 105.636-48.773 28.085a6.973 6.973 0 0 1 -2.196.693l.925 1.734 54.089-31.32v-.694l-1.387-2.312c-.231 1.618-1.271 3.005-2.658 3.814z" fill="url(#j)" transform="translate(0 -9.246)"/></g></g></g></g></svg>