<?xml version="1.0" encoding="UTF-8" standalone="no"?>
<!-- Created with Inkscape (http://www.inkscape.org/) -->

<svg
   version="1.1"
   id="svg1"
   width="1523"
   height="1525"
   viewBox="0 0 1523 1525"
   sodipodi:docname="wasp-logo-squared-sharp.svg"
   inkscape:version="1.4.3 (0d15f75042, 2025-12-25)"
   xmlns:inkscape="http://www.inkscape.org/namespaces/inkscape"
   xmlns:sodipodi="http://sodipodi.sourceforge.net/DTD/sodipodi-0.dtd"
   xmlns="http://www.w3.org/2000/svg"
   xmlns:svg="http://www.w3.org/2000/svg">
  <defs
     id="defs1" />
  <sodipodi:namedview
     id="namedview1"
     pagecolor="#ffffff"
     bordercolor="#000000"
     borderopacity="0.25"
     inkscape:showpageshadow="2"
     inkscape:pageopacity="0.0"
     inkscape:pagecheckerboard="0"
     inkscape:deskcolor="#d1d1d1"
     showgrid="false"
     inkscape:zoom="0.5"
     inkscape:cx="1001"
     inkscape:cy="654"
     inkscape:window-width="2560"
     inkscape:window-height="1403"
     inkscape:window-x="0"
     inkscape:window-y="0"
     inkscape:window-maximized="1"
     inkscape:current-layer="g1" />
  <g
     inkscape:groupmode="layer"
     inkscape:label="Image"
     id="g1"
     style="display:inline">
    <rect
       style="display:inline;fill:#f5c842;fill-opacity:1;stroke:#d4aa00;stroke-width:1.48932"
       id="rect1"
       width="1520.494"
       height="1520.4937"
       x="1.9302661"
       y="1.9302716" />
    <rect
       style="display:inline;fill:#1a1a1a;fill-opacity:1;stroke:#1a1a1a;stroke-width:1.37953"
       id="rect2"
       width="493.22198"
       height="156.59341"
       x="255.05034"
       y="530.72974" />
    <rect
       style="fill:#1a1a1a;fill-opacity:1;stroke:#1a1a1a;stroke-width:1.37953"
       id="rect3"
       width="493.22198"
       height="156.59341"
       x="255.05034"
       y="828.72974" />
    <path
       style="fill:#000000;fill-opacity:1;stroke:#000000;stroke-width:1.37953"
       d="m 853.92803,295.68976 h 154.13337 c 0,0 29.7435,0.75422 40.6973,2.80908 7.115,1.33472 19.7735,3.18731 32.9155,9.10654 13.142,5.91923 16.0175,7.40511 22.0665,11.00639 22.9351,13.65444 48.8579,49.48286 54.8328,70.08266 5.9972,20.67654 6.2658,47.38029 6.2658,47.38029 v 197.18166 c 0,0 0.5806,10.52911 2.2894,15.25083 1.8947,5.23506 7.6861,19.17533 13.7799,23.55934 5.5374,3.98369 12.6634,9.75474 20.3208,10.83142 5.869,0.82521 13.0728,1.46225 13.0728,1.46225 h 52.5103 v 72.43617 1.1895 0.45584 0.45585 0.76664 0.2072 h -172.7079 v -2.21705 c 0,0 -22.2537,-5.25276 -33.4252,-11.93137 -12.538,-7.49558 -25.1353,-16.29672 -34.3092,-27.66449 -7.8499,-9.72725 -16.9626,-24.75378 -21.2275,-36.50332 -4.9743,-13.70397 -7.26226,-42.33696 -7.26226,-42.33696 V 493.54131 c 0,0 -1.17085,-17.74092 -7.45474,-26.51082 -6.9575,-9.71 -8.21264,-13.36128 -21.6329,-20.80969 -11.77446,-6.53497 -30.33763,-8.07051 -30.33763,-8.07051 H 854.4144 Z"
       id="path3"
       sodipodi:nodetypes="ccssssccsssccccccccccsssccssccc" />
    <path
       style="fill:#000000;fill-opacity:1;stroke:#000000;stroke-width:1.37953"
       d="m 853.92803,1225.0135 h 154.13337 c 0,0 29.7435,-0.7542 40.6973,-2.8091 7.115,-1.3347 19.7735,-3.1873 32.9155,-9.1065 13.142,-5.9193 16.0175,-7.4051 22.0665,-11.0064 22.9351,-13.6545 48.8579,-49.4829 54.8328,-70.0827 5.9972,-20.6765 6.2658,-47.3803 6.2658,-47.3803 V 887.44686 c 0,0 0.5806,-10.52911 2.2894,-15.25083 1.8947,-5.23506 7.6861,-19.17533 13.7799,-23.55934 5.5374,-3.98369 12.6634,-9.75474 20.3208,-10.83142 5.869,-0.82521 13.0728,-1.46225 13.0728,-1.46225 h 52.5103 v -72.43617 -1.1895 -0.45584 -0.45585 -0.76664 -0.2072 h -172.7079 v 2.21705 c 0,0 -22.2537,5.25276 -33.4252,11.93137 -12.538,7.49558 -25.1353,16.29672 -34.3092,27.66449 -7.8499,9.72725 -16.9626,24.75378 -21.2275,36.50332 -4.9743,13.70397 -7.26226,42.33696 -7.26226,42.33696 v 145.67689 c 0,0 -1.17085,17.741 -7.45474,26.5109 -6.9575,9.71 -8.21264,13.3612 -21.6329,20.8096 -11.77446,6.535 -30.33763,8.0706 -30.33763,8.0706 H 854.4144 Z"
       id="path4"
       sodipodi:nodetypes="ccssssccsssccccccccccsssccssccc" />
  </g>
</svg>
