<svg fill="none" height="40" viewBox="0 0 138 40" width="138" xmlns="http://www.w3.org/2000/svg"><g fill="#2f2f2f" fill-opacity=".5"><path d="m126.684 14.3582c-.335 0-.661.0692-.949.2325l-9.131 5.2727c-.591.3406-.95.9834-.95 1.6675v10.5264c0 .6835.359 1.3256.95 1.667l2.385 1.3765c1.158.5709 1.585.562 2.113.562 1.715 0 2.694-1.0408 2.694-2.8495v-10.3908c0-.1469-.127-.2519-.271-.2519h-1.144c-.146 0-.271.105-.271.2519v10.3908c0 .8016-.835 1.608-2.191.9304l-2.481-1.4539c-.088-.0477-.155-.132-.155-.2325v-10.5266c0-.0997.066-.2013.155-.252l9.111-5.253c.041-.0241.088-.0368.136-.0368.047 0 .094.0127.135.0368l9.112 5.2533c.086.0523.155.149.155.2522v10.5264c0 .1005-.051.2034-.136.2519l-9.131 5.2533c-.078.0467-.186.0467-.271 0l-2.346-1.3956c-.035-.0194-.075-.0295-.116-.0295s-.081.0101-.116.0295c-.648.367-.769.4095-1.377.6202-.149.0523-.376.1334.078.388l3.063 1.8025c.289.1666.616.2536.95.2522.333.0021.661-.0849.95-.2519l9.13-5.2537c.591-.3435.95-.9834.95-1.6669v-10.5267c0-.6838-.359-1.3256-.95-1.6669l-9.13-5.2728c-.287-.1635-.615-.2328-.95-.2328z"/><path d="m129.127 21.8796c-2.6 0-4.148 1.1066-4.148 2.9468 0 1.9959 1.537 2.5445 4.032 2.7913 2.986.2923 3.218.7307 3.218 1.3183 0 1.0193-.812 1.4539-2.733 1.4539-2.413 0-2.943-.6025-3.121-1.8028-.021-.1288-.12-.2328-.252-.2328h-1.183c-.145 0-.271.1256-.271.2716 0 1.5366.836 3.3536 4.827 3.3536 2.889 0 4.556-1.134 4.556-3.1211 0-1.9695-1.346-2.4984-4.149-2.8689-2.832-.3748-3.102-.5582-3.102-1.2213 0-.5475.229-1.2798 2.326-1.2798 1.874 0 2.567.4042 2.85 1.6675.025.1186.13.2131.252.2131h1.183c.073 0 .143-.0447.194-.097.049-.0557.084-.1185.077-.1937-.183-2.1754-1.634-3.1987-4.556-3.1987z"/><path d="m73.0059.555789c-.1021.000068-.2023.026718-.291.077327-.088.051534-.1612.125123-.2122.213518-.0509.088395-.078.188546-.0785.290586v14.82998c0 .1455-.0676.2759-.1937.3489-.0618.036-.1321.055-.2036.055s-.1417-.019-.2035-.055l-2.4233-1.3956c-.1767-.1023-.3773-.1562-.5815-.1562s-.4049.0539-.5816.1562l-9.6734 5.5828c-.3615.2088-.5814.61-.5814 1.0276v11.166c0 .4171.2201.7992.5814 1.008l9.6734 5.5831c.1767.1025.3773.1565.5816.1565.2042 0 .4049-.054.5815-.1565l9.6734-5.5831c.1771-.102.3241-.2488.4263-.4258.1021-.177.1557-.3778.1554-.5822v-27.8375c-.0003-.20913-.056-.41445-.1616-.59498-.1056-.18054-.2571-.32983-.4393-.43263l-5.7577-3.218073c-.0902-.050384-.1905-.059275-.2907-.057928zm-62.2276 13.938211c-.1843.0072-.3578.0396-.5232.1355l-9.673665 5.5831c-.177201.1018-.324321.2487-.426436.4257-.1021136.177-.15558691.3779-.15499412.5823l.01939902 14.9854c0 .2083.1075031.402.2907151.5038.087837.0528.188378.0807.29085.0807s.203014-.0279.29085-.0807l5.738061-3.2954c.36346-.2161.60083-.5916.60083-1.0082v-6.9982c0-.4176.21958-.8007.5817-1.0082l2.44239-1.415c.1766-.1027.3774-.1563.5817-.1552.1994 0 .4041.0498.5814.1552l2.4427 1.415c.1773.1017.3246.2486.4268.4257s.1556.3781.1549.5825v6.998c0 .4165.2398.7948.6008 1.0082l5.7381 3.2956c.0878.0528.1883.0807.2908.0807s.203-.0279.2909-.0807c.0884-.0511.1618-.1246.2129-.2131.051-.0885.078-.1888.078-.291l.0189-14.9851c.0012-.2045-.0521-.4056-.1543-.5827-.1021-.1771-.2495-.3239-.4271-.4253l-9.6734-5.5831c-.1635-.0959-.3376-.128-.5232-.1355zm86.9247.1355c-.2021 0-.4001.0512-.5815.1552l-9.6733 5.5831c-.1772.1019-.3242.2488-.4264.4258-.1021.177-.1557.3778-.1553.5821v11.166c0 .4201.2365.8005.6008 1.0083l9.596 5.4667c.3543.2021.787.2174 1.1438.0188l5.8159-3.2372c.184-.1023.309-.2936.31-.5038.001-.1023-.026-.2031-.077-.2917-.051-.0887-.125-.162-.214-.2124l-9.7314-5.5831c-.1822-.104-.3101-.3145-.3101-.5235v-3.4892c0-.2088.1293-.4001.3101-.5041l3.0241-1.7448c.0883-.0511.1887-.0781.2908-.0781s.2025.027.2909.0781l3.0236 1.7448c.089.0509.162.1243.213.2128.052.0885.078.1889.078.2911v2.7527c0 .1022.027.2026.078.2911s.124.1619.213.2128c.181.1048.401.1051.581 0l5.797-3.3725c.177-.1023.323-.2493.426-.4262.102-.177.155-.3777.156-.582v-2.6943c0-.4163-.221-.7991-.582-1.0082l-9.6153-5.5831c-.1768-.1023-.3775-.1557-.5817-.155zm-28.9234 8.3359c.0507 0 .11.0124.1552.0385l3.3151 1.9192c.09.052.1552.1482.1552.2519v3.8383c0 .1043-.0647.2002-.1552.2522l-3.3151 1.9191c-.0443.0253-.0944.0386-.1453.0386-.051 0-.1011-.0133-.1454-.0386l-3.3148-1.9191c-.0903-.0523-.1552-.1479-.1552-.2522v-3.8383c0-.104.0652-.1994.1552-.2519l3.3148-1.9189c.0408-.0254.0878-.0387.1358-.0385v-.0003z"/><path d="m39.837 14.5709c-.2016 0-.4009.0512-.5815.1552l-9.6733 5.5638c-.3619.2082-.5817.6102-.5817 1.0273v11.166c0 .4176.2201.7991.5817 1.0082l9.6733 5.5829c.1767.1026.3773.1566.5816.1566s.4049-.054.5816-.1566l9.6733-5.5829c.1771-.102.3241-.2489.4262-.426.1021-.177.1557-.3778.1553-.5822v-11.166c0-.4176-.2199-.8191-.5815-1.0273l-9.6733-5.5638c-.1768-.1021-.3775-.1556-.5817-.1552zm57.8464 9.9644c-.0385 0-.0814 0-.1161.0194l-1.861 1.0855c-.0347.0193-.0637.0474-.0842.0814-.0204.0341-.0315.0729-.0322.1126v2.1323c0 .0803.0464.1538.1164.194l1.861 1.0661c.0697.0404.1441.0404.2131 0l1.8609-1.0664c.0346-.0194.0635-.0475.0839-.0814.0204-.034.0316-.0727.0325-.1123v-2.1326c-.0009-.0396-.0121-.0783-.0325-.1123s-.0493-.062-.0839-.0814l-1.8609-1.0858c-.0345-.0202-.0582-.0189-.097-.0189z"/></g></svg>