<svg fill="none" height="46" viewBox="0 0 114 46" width="114" xmlns="http://www.w3.org/2000/svg"><g fill="#2f2f2f" fill-opacity=".5"><path d="m69.8179 30.5522h2.9993v-10.9938h-2.9993zm-.1275-13.8358c0-.9767.5441-1.4649 1.6323-1.4649 1.0879 0 1.6323.4882 1.6323 1.4649 0 .4656-.1361.8278-.408 1.0868-.2722.259-.6802.3882-1.2243.3882-1.0882 0-1.6323-.4917-1.6323-1.475z"/><path clip-rule="evenodd" d="m57.6831 24.2095c.9673-.8195 1.4507-2.0025 1.4507-3.5497 0-1.4882-.4539-2.6076-1.3618-3.3583-.908-.75-2.2337-1.1257-3.9778-1.1257h-4.5921v14.3764h3.0483v-5.1135h1.308c1.783 0 3.158-.4094 4.1247-1.2292zm-4.4296-1.2684h-1.0031v-4.2674h1.3865c.8326 0 1.4437.1701 1.834.5111.3899.341.5851.8688.5851 1.5834 0 .7076-.2327 1.2468-.6983 1.6173s-1.1667.5556-2.1042.5556z" fill-rule="evenodd"/><path d="m68.2271 19.4403c-.2688-.059-.6063-.0885-1.0128-.0885-.682 0-1.3129.1885-1.8928.5653-.5774.3739-1.0524.886-1.3819 1.4899h-.1472l-.4427-1.8486h-2.2716v10.9938h2.9993v-5.5952c0-.885.267-1.5736.8011-2.0653.5347-.4916 1.2802-.7375 2.2375-.7375.3476 0 .6423.033.8851.0983zm13.974 10.4237c.7837-.5903 1.1753-1.4486 1.1753-2.5764 0-.5441-.0947-1.0129-.285-1.4063-.19-.3934-.4854-.7406-.8851-1.0423-.3997-.3014-1.0292-.6257-1.8882-.9733-.9635-.3868-1.5878-.6788-1.8729-.8753-.2851-.1966-.4281-.4292-.4281-.6983 0-.4785.4427-.7177 1.3277-.7177.498 0 .9865.0753 1.465.2257.4784.1514.9934.3444 1.5441.5805l.9045-2.1632c-1.2521-.5767-2.5403-.8652-3.8646-.8652-1.3899 0-2.4629.267-3.2198.8013-.758.5344-1.1365 1.2896-1.1365 2.2664 0 .5705.0903 1.0507.2709 1.4406.1798.3903.4684.7361.8656 1.0375.3958.3017 1.0177.6295 1.8628.9833.59.2493 1.0622.4671 1.4164.6539.3538.1871.6031.3541.7475.5017.1441.1476.216.3392.216.5753 0 .6292-.5441.9438-1.6326.9438-.5309 0-1.1455-.0885-1.8434-.2653-.6987-.1771-1.3261-.3965-1.8834-.659v2.4781c.5093.2151 1.0401.3749 1.5834.4768.5638.1083 1.2455.1625 2.0455.1625 1.5597 0 2.7316-.2952 3.5149-.8855zm13.057.6882h-2.9993v-6.4212c0-.7931-.133-1.3882-.398-1.7847-.2659-.3966-.6836-.5952-1.2541-.5952-.7667 0-1.324.282-1.6716.8459-.3475.5638-.5211 1.4913-.5211 2.7829v5.1723h-2.9994v-10.9938h2.2914l.4031 1.4063h.1674c.2947-.5049.7211-.9 1.2781-1.1851.5573-.2851 1.1965-.4278 1.9177-.4278 1.6455 0 2.7597.5379 3.3434 1.6129h.2653c.2951-.5115.7295-.908 1.3031-1.19.5736-.2819 1.2208-.4229 1.942-.4229 1.2455 0 2.1879.3198 2.8269.9587.639.6392.959 1.6635.959 3.0729v7.1688h-3.0091v-6.4212c0-.7931-.133-1.3882-.398-1.7847-.2659-.3966-.6836-.5952-1.2541-.5952-.734 0-1.283.2625-1.6472.7868-.3636.5247-.5455 1.357-.5455 2.4976z"/><path clip-rule="evenodd" d="m111.144 29.0572.581 1.4948h2.094v-7.3261c0-1.3111-.393-2.2878-1.18-2.9302s-1.917-.9639-3.392-.9639c-1.541 0-2.944.3313-4.209.9934l.993 2.0257c1.186-.5312 2.219-.7965 3.098-.7965 1.14 0 1.711.5573 1.711 1.6715v.482l-1.908.059c-1.645.059-2.876.3656-3.693.9194-.816.5542-1.224 1.4146-1.224 2.5813 0 1.1146.303 1.9733.91 2.5764.606.6031 1.437.9045 2.493.9045.858 0 1.555-.1229 2.089-.3687.534-.2459 1.054-.6865 1.559-1.3226zm-1.465-3.5597 1.161-.0393v.9045c0 .6625-.209 1.1934-.625 1.5931-.416.4-.972.6-1.667.6-.97 0-1.455-.4229-1.455-1.2684 0-.5903.213-1.0292.639-1.3177.426-.2882 1.075-.4459 1.947-.4722zm-75.7878 10.5333-19.958 5.9028c-.6098.1806-1.1941-.3469-1.066-.9618l7.1299-34.14592c.1333-.63819 1.0159-.73958 1.2944-.14826l13.2014 28.03338c.249.5288-.035 1.1524-.6017 1.3198zm3.4226-1.3924-15.2855-32.45906v-.00069c-.1899-.3997-.4845-.74056-.8524-.98643-.3679-.245862-.7956-.387573-1.2375-.410103-.9302-.054167-1.7636.394443-2.2337 1.157993l-16.57783 26.85079c-.251846.4056-.382865.8746-.377699 1.352.005165.4774.146302.9434.406869 1.3435l8.10349 12.5528c.48299.7493 1.31977 1.183 2.18957 1.183.2465 0 .4945-.0348.7382-.107l23.5223-6.957c.3541-.1037.6818-.2822.9609-.5235.2792-.2413.5033-.5397.6572-.8751.1519-.3334.2293-.6959.2269-1.0623-.0024-.3663-.0846-.7278-.2408-1.0592z" fill-rule="evenodd"/></g></svg>