<svg fill="none" height="50" viewBox="0 0 57 50" width="57" xmlns="http://www.w3.org/2000/svg"><g fill="#2f2f2f" fill-opacity=".5"><path d="m56.3048 25.0057c0-3.7194-4.6579-7.2442-11.7991-9.4301 1.648-7.27851.9156-13.06931-2.3117-14.923277-.7439-.434882-1.6137-.6408787-2.5635-.6408787v2.5520757c.5264 0 .9498.10299 1.3046.29755 1.5564.89265 2.2316 4.2916 1.7052 8.66333-.1259 1.0757-.3319 2.2087-.5837 3.3646-2.243-.5493-4.6921-.9728-7.2671-1.2474-1.5449-2.1172-3.1471-4.03986-4.7608-5.72217 3.7308-3.46761 7.2328-5.36736 9.6132-5.36736v-2.55207c-3.1472 0-7.2671 2.24308-11.4328 6.13413-4.1657-3.86817-8.2857-6.0883529-11.4328-6.0883529v2.5520729c2.3689 0 5.8823 1.8883 9.6131 5.33303-1.6022 1.6823-3.2044 3.59352-4.7264 5.71072-2.5864.2746-5.0355.6981-7.2786 1.2588-.2632-1.1444-.4578-2.2545-.5951-3.3188-.5379-4.37171.1259-7.77066 1.6709-8.67476.3433-.20599.7896-.29755 1.3161-.29755v-2.5520687c-.9614 0-1.8311.2059967-2.5864.6408787-3.2159 1.85397-3.9369 7.63333-2.2775 14.889-7.11829 2.1973-11.75322 5.7107-11.75322 9.4186 0 3.7194 4.65782 7.2442 11.79902 9.4301-1.648 7.2786-.9155 13.0693 2.3118 14.9233.7438.4349 1.6136.6409 2.5749.6409 3.1472 0 7.2671-2.2431 11.4328-6.1341 4.1658 3.8681 8.2857 6.0883 11.4329 6.0883.9613 0 1.831-.206 2.5864-.6409 3.2158-1.8539 3.9368-7.6333 2.2774-14.8889 7.0954-2.1859 11.7304-5.7107 11.7304-9.4187zm-14.9005-7.6333c-.4234 1.4763-.9499 2.9984-1.545 4.5205-.4692-.9156-.9613-1.8311-1.4992-2.7466-.5264-.9156-1.0872-1.8082-1.6479-2.678 1.6251.2403 3.1929.5379 4.6921.9041zm-5.2415 12.1881c-.8926 1.545-1.8081 3.0099-2.758 4.3718-1.7052.1487-3.4333.2288-5.1728.2288-1.7281 0-3.4562-.0801-5.15-.2174-.9498-1.3619-1.8768-2.8153-2.7695-4.3488-.8697-1.4992-1.6594-3.0213-2.3804-4.5548.7096-1.5336 1.5107-3.0671 2.369-4.5663.8926-1.545 1.8082-3.0098 2.7581-4.3717 1.7052-.1488 3.4332-.2289 5.1728-.2289 1.7281 0 3.4561.0801 5.1499.2174.9499 1.3619 1.8768 2.8153 2.7695 4.3489.8698 1.4992 1.6594 3.0212 2.3804 4.5548-.721 1.5335-1.5106 3.067-2.369 4.5662zm3.6965-1.4877c.618 1.5335 1.1445 3.0671 1.5794 4.5548-1.4992.3662-3.0786.6752-4.7151.9155.5608-.8812 1.1216-1.7853 1.648-2.7122.5264-.9156 1.0185-1.8426 1.4877-2.7581zm-11.6044 12.211c-1.0644-1.0986-2.1287-2.3232-3.1815-3.6621 1.0299.0457 2.0828.0801 3.1471.0801 1.0758 0 2.1401-.0229 3.1815-.0801-1.03 1.3389-2.0943 2.5635-3.1471 3.6621zm-8.5146-6.7407c-1.6251-.2403-3.1929-.5378-4.6921-.9041.4234-1.4763.9498-2.9983 1.5449-4.5204.4693.9155.9614 1.831 1.4992 2.7466.5379.9155 1.0873 1.8082 1.648 2.6779zm8.4573-23.81547c1.0644 1.09867 2.1287 2.32317 3.1815 3.66217-1.0299-.0458-2.0828-.0801-3.1471-.0801-1.0758 0-2.1401.0229-3.1815.0801 1.0299-1.339 2.0943-2.5635 3.1471-3.66217zm-8.4687 6.74067c-.5608.8812-1.1216 1.7853-1.648 2.7123-.5264.9155-1.0185 1.8311-1.4878 2.7466-.6179-1.5335-1.1444-3.067-1.5793-4.5548 1.4992-.3548 3.0785-.6638 4.7151-.9041zm-10.35709 14.3282c-4.05127-1.7281-6.672-3.994-6.672-5.7908 0-1.7967 2.62073-4.0741 6.672-5.7908.98419-.4234 2.05999-.8011 3.17009-1.1558.6523 2.243 1.5106 4.5777 2.5749 6.9695-1.0528 2.3804-1.8997 4.7036-2.5406 6.9352-1.133-.3547-2.2087-.7438-3.20439-1.1673zm6.15699 16.3539c-1.5564-.8927-2.2316-4.2916-1.7052-8.6633.1259-1.0758.3319-2.2088.5837-3.3646 2.2431.5493 4.6921.9727 7.2671 1.2474 1.545 2.1172 3.1472 4.0398 4.7608 5.7221-3.7308 3.4676-7.2328 5.3674-9.6132 5.3674-.515-.0115-.9498-.1145-1.2932-.309zm27.1458-8.7206c.5379 4.3718-.1259 7.7707-1.6708 8.6748-.3434.206-.7897.2976-1.3161.2976-2.369 0-5.8824-1.8883-9.6132-5.3331 1.6022-1.6823 3.2044-3.5935 4.7265-5.7107 2.5864-.2746 5.0355-.6981 7.2785-1.2588.2633 1.1558.4692 2.2659.5951 3.3302zm4.4061-7.6333c-.9842.4235-2.06.8011-3.1701 1.1559-.6523-2.2431-1.5106-4.5777-2.5749-6.9696 1.0528-2.3804 1.8997-4.7036 2.5406-6.9352 1.133.3548 2.2087.7439 3.2158 1.1673 4.0513 1.7281 6.672 3.9941 6.672 5.7908-.0114 1.7968-2.6322 4.0742-6.6834 5.7908z"/><path d="m28.2203 30.2361c2.8884 0 5.23-2.3416 5.23-5.2301 0-2.8884-2.3416-5.23-5.23-5.23-2.8885 0-5.2301 2.3416-5.2301 5.23 0 2.8885 2.3416 5.2301 5.2301 5.2301z"/></g></svg>