<svg width="440" height="440" viewBox="0 0 440 440" fill="none" xmlns="http://www.w3.org/2000/svg">
<g clip-path="url(#clip0_3018_82)">
<path d="M436 0H4C1.79086 0 0 1.79086 0 4V436C0 438.209 1.79086 440 4 440H436C438.209 440 440 438.209 440 436V4C440 1.79086 438.209 0 436 0Z" fill="#F5C842"/>
<path d="M204.937 173H101.937C100.28 173 98.9368 174.343 98.9368 176V202C98.9368 203.657 100.28 205 101.937 205H204.937C206.594 205 207.937 203.657 207.937 202V176C207.937 174.343 206.594 173 204.937 173Z" fill="#111111"/>
<path d="M204.937 235H101.937C100.28 235 98.9368 236.343 98.9368 238V264C98.9368 265.657 100.28 267 101.937 267H204.937C206.594 267 207.937 265.657 207.937 264V238C207.937 236.343 206.594 235 204.937 235Z" fill="#111111"/>
<path d="M213.493 349.402V327.292H225.93C234.59 327.292 241.223 325.265 245.83 321.211C250.436 317.342 252.555 311.446 252.186 303.523L249.423 258.196C248.685 246.219 251.541 236.638 257.99 229.452C264.624 222.266 273.744 218.673 285.352 218.673V220.055C273.56 220.055 264.439 216.554 257.99 209.552C251.541 202.366 248.685 192.785 249.423 180.808L252.186 135.481C252.555 127.558 250.436 121.662 245.83 117.793C241.223 113.739 234.59 111.712 225.93 111.712H213.493V89.6015H225.93C236.801 89.6015 246.106 91.4441 253.845 95.1292C261.768 98.63 267.756 103.789 271.81 110.607C275.863 117.424 277.614 125.716 277.061 135.481L274.297 180.808C273.744 190.574 275.218 197.668 278.719 202.09C282.22 206.328 289.959 208.447 301.935 208.447H332.338V230.557H301.935C290.143 230.557 282.404 232.768 278.719 237.19C275.218 241.428 273.744 248.43 274.297 258.196L277.061 303.523C277.614 313.104 275.863 321.303 271.81 328.121C267.756 335.122 261.768 340.374 253.845 343.875C246.106 347.56 236.801 349.402 225.93 349.402H213.493Z" fill="#111111"/>
<path d="M213.493 349.402H209.592C209.592 351.556 211.338 353.303 213.493 353.303V349.402ZM213.493 327.292V323.391C211.338 323.391 209.592 325.137 209.592 327.292H213.493ZM245.83 321.211L243.321 318.224C243.298 318.244 243.275 318.263 243.253 318.283L245.83 321.211ZM252.186 303.523L256.083 303.341C256.082 303.323 256.081 303.304 256.08 303.285L252.186 303.523ZM249.423 258.196L253.316 257.958L253.316 257.956L249.423 258.196ZM257.99 229.452L255.124 226.806C255.112 226.819 255.1 226.833 255.087 226.846L257.99 229.452ZM285.352 218.673H289.253C289.253 216.518 287.507 214.772 285.352 214.772V218.673ZM285.352 220.055V223.955C287.507 223.955 289.253 222.209 289.253 220.055H285.352ZM257.99 209.552L255.087 212.157C255.099 212.17 255.11 212.182 255.121 212.195L257.99 209.552ZM249.423 180.808L253.316 181.048L253.316 181.046L249.423 180.808ZM252.186 135.481L256.08 135.719C256.081 135.7 256.082 135.681 256.083 135.662L252.186 135.481ZM245.83 117.793L243.253 120.721C243.275 120.741 243.298 120.76 243.321 120.779L245.83 117.793ZM213.493 111.712H209.592C209.592 113.866 211.338 115.613 213.493 115.613V111.712ZM213.493 89.6015V85.7009C211.338 85.7009 209.592 87.4473 209.592 89.6015H213.493ZM253.845 95.1292L252.168 98.6508C252.201 98.6667 252.234 98.6821 252.268 98.697L253.845 95.1292ZM271.81 110.607L268.457 112.6V112.6L271.81 110.607ZM277.061 135.481L280.954 135.719C280.955 135.713 280.955 135.707 280.955 135.702L277.061 135.481ZM274.297 180.808L270.404 180.571C270.403 180.576 270.403 180.582 270.403 180.588L274.297 180.808ZM278.719 202.09L275.661 204.511C275.678 204.532 275.695 204.553 275.712 204.574L278.719 202.09ZM332.338 208.447H336.238C336.238 206.292 334.492 204.546 332.338 204.546V208.447ZM332.338 230.557V234.458C334.492 234.458 336.238 232.711 336.238 230.557H332.338ZM278.719 237.19L275.723 234.693C275.719 234.698 275.716 234.702 275.712 234.706L278.719 237.19ZM274.297 258.196L270.403 258.416C270.403 258.422 270.403 258.427 270.404 258.433L274.297 258.196ZM277.061 303.523L280.955 303.298L280.954 303.285L277.061 303.523ZM271.81 328.121L268.457 326.127C268.449 326.14 268.442 326.153 268.434 326.166L271.81 328.121ZM253.845 343.875L252.268 340.307C252.234 340.322 252.201 340.337 252.168 340.353L253.845 343.875ZM213.493 349.402H217.393V327.292H213.493H209.592V349.402H213.493ZM213.493 327.292V331.192H225.93V327.292V323.391H213.493V327.292ZM225.93 327.292V331.192C235.151 331.192 242.843 329.035 248.406 324.139L245.83 321.211L243.253 318.283C239.604 321.494 234.029 323.391 225.93 323.391V327.292ZM245.83 321.211L248.338 324.198C254.156 319.311 256.488 312.059 256.083 303.341L252.186 303.523L248.29 303.704C248.622 310.832 246.716 315.373 243.321 318.224L245.83 321.211ZM252.186 303.523L256.08 303.285L253.316 257.958L249.423 258.196L245.529 258.433L248.293 303.76L252.186 303.523ZM249.423 258.196L253.316 257.956C252.626 246.753 255.303 238.286 260.893 232.057L257.99 229.452L255.087 226.846C247.78 234.989 244.745 245.684 245.529 258.435L249.423 258.196ZM257.99 229.452L260.857 232.097C266.613 225.861 274.611 222.573 285.352 222.573V218.673V214.772C272.877 214.772 262.634 218.671 255.124 226.806L257.99 229.452ZM285.352 218.673H281.452V220.055H285.352H289.253V218.673H285.352ZM285.352 220.055V216.154C274.371 216.154 266.4 212.925 260.859 206.909L257.99 209.552L255.121 212.195C262.479 220.183 272.749 223.955 285.352 223.955V220.055ZM257.99 209.552L260.893 206.947C255.303 200.718 252.626 192.25 253.316 181.048L249.423 180.808L245.529 180.569C244.745 193.319 247.78 204.014 255.087 212.157L257.99 209.552ZM249.423 180.808L253.316 181.046L256.08 135.719L252.186 135.481L248.293 135.244L245.529 180.571L249.423 180.808ZM252.186 135.481L256.083 135.662C256.488 126.945 254.156 119.693 248.338 114.806L245.83 117.793L243.321 120.779C246.716 123.631 248.622 128.172 248.29 135.3L252.186 135.481ZM245.83 117.793L248.406 114.864C242.843 109.968 235.151 107.812 225.93 107.812V111.712V115.613C234.029 115.613 239.604 117.51 243.253 120.721L245.83 117.793ZM225.93 111.712V107.812H213.493V111.712V115.613H225.93V111.712ZM213.493 111.712H217.393V89.6015H213.493H209.592V111.712H213.493ZM213.493 89.6015V93.5021H225.93V89.6015V85.7009H213.493V89.6015ZM225.93 89.6015V93.5021C236.372 93.5021 245.074 95.2728 252.168 98.6508L253.845 95.1292L255.522 91.6075C247.138 87.6153 237.23 85.7009 225.93 85.7009V89.6015ZM253.845 95.1292L252.268 98.697C259.522 101.902 264.856 106.544 268.457 112.6L271.81 110.607L275.162 108.613C270.656 101.035 264.014 95.358 255.421 91.5614L253.845 95.1292ZM271.81 110.607L268.457 112.6C272.03 118.609 273.686 126.089 273.167 135.261L277.061 135.481L280.955 135.702C281.542 125.343 279.697 116.239 275.162 108.613L271.81 110.607ZM277.061 135.481L273.168 135.244L270.404 180.571L274.297 180.808L278.19 181.046L280.954 135.719L277.061 135.481ZM274.297 180.808L270.403 180.588C269.832 190.667 271.264 198.957 275.661 204.511L278.719 202.09L281.777 199.669C279.173 196.378 277.656 190.48 278.191 181.029L274.297 180.808ZM278.719 202.09L275.712 204.574C278.16 207.537 281.814 209.441 286.119 210.619C290.445 211.804 295.752 212.347 301.935 212.347V208.447V204.546C296.142 204.546 291.592 204.03 288.179 203.095C284.745 202.155 282.779 200.88 281.726 199.605L278.719 202.09ZM301.935 208.447V212.347H332.338V208.447V204.546H301.935V208.447ZM332.338 208.447H328.437V230.557H332.338H336.238V208.447H332.338ZM332.338 230.557V226.657H301.935V230.557V234.458H332.338V230.557ZM301.935 230.557V226.657C295.829 226.657 290.554 227.225 286.216 228.465C281.883 229.703 278.23 231.685 275.723 234.693L278.719 237.19L281.716 239.688C282.894 238.274 284.953 236.939 288.359 235.966C291.759 234.995 296.25 234.458 301.935 234.458V230.557ZM278.719 237.19L275.712 234.706C271.251 240.106 269.834 248.364 270.403 258.416L274.297 258.196L278.191 257.975C277.655 248.496 279.186 242.75 281.726 239.675L278.719 237.19ZM274.297 258.196L270.404 258.433L273.168 303.76L277.061 303.523L280.954 303.285L278.19 257.958L274.297 258.196ZM277.061 303.523L273.167 303.747C273.684 312.717 272.036 320.108 268.457 326.127L271.81 328.121L275.162 330.114C279.691 322.498 281.543 313.491 280.955 303.298L277.061 303.523ZM271.81 328.121L268.434 326.166C264.824 332.402 259.492 337.115 252.268 340.307L253.845 343.875L255.421 347.442C264.043 343.633 270.688 337.843 275.185 330.075L271.81 328.121ZM253.845 343.875L252.168 340.353C245.074 343.731 236.372 345.502 225.93 345.502V349.402V353.303C237.23 353.303 247.138 351.388 255.522 347.396L253.845 343.875ZM225.93 349.402V345.502H213.493V349.402V353.303H225.93V349.402Z" fill="#111111"/>
</g>
<defs>
<clipPath id="clip0_3018_82">
<rect width="440" height="440" fill="white"/>
</clipPath>
</defs>
</svg>
